<?xml version="1.0" encoding="UTF-8" standalone="no"?>
<!-- Created with Inkscape (http://www.inkscape.org/) -->

<svg
   xmlns:dc="http://purl.org/dc/elements/1.1/"
   xmlns:cc="http://creativecommons.org/ns#"
   xmlns:rdf="http://www.w3.org/1999/02/22-rdf-syntax-ns#"
   xmlns:svg="http://www.w3.org/2000/svg"
   xmlns="http://www.w3.org/2000/svg"
   xmlns:sodipodi="http://sodipodi.sourceforge.net/DTD/sodipodi-0.dtd"
   xmlns:inkscape="http://www.inkscape.org/namespaces/inkscape"
   width="16.70923mm"
   height="22.089005mm"
   viewBox="0 0 16.70923 22.089005"
   version="1.1"
   id="svg8"
   inkscape:version="0.92.3 (2405546, 2018-03-11)"
   sodipodi:docname="armor.svg">
  <defs
     id="defs2" />
  <sodipodi:namedview
     id="base"
     pagecolor="#ffffff"
     bordercolor="#666666"
     borderopacity="1.0"
     inkscape:pageopacity="0.0"
     inkscape:pageshadow="2"
     inkscape:zoom="2.8"
     inkscape:cx="106.98337"
     inkscape:cy="27.288694"
     inkscape:document-units="mm"
     inkscape:current-layer="g4538"
     showgrid="false"
     inkscape:window-width="1920"
     inkscape:window-height="1057"
     inkscape:window-x="-8"
     inkscape:window-y="-8"
     inkscape:window-maximized="1"
     inkscape:pagecheckerboard="true" />
  <metadata
     id="metadata5">
    <rdf:RDF>
      <cc:Work
         rdf:about="">
        <dc:format>image/svg+xml</dc:format>
        <dc:type
           rdf:resource="http://purl.org/dc/dcmitype/StillImage" />
        <dc:title></dc:title>
      </cc:Work>
    </rdf:RDF>
  </metadata>
  <g
     inkscape:label="Layer 1"
     inkscape:groupmode="layer"
     id="layer1"
     transform="translate(-89.419476,-87.703873)">
    <g
       id="g4538"
       transform="matrix(0.26458333,0,0,0.26458333,-442.54301,74.746887)">
      <path
         class="armor-icon-path"
         id="path4518"
         d="m 2073.7189,57.593286 c 0,-4.762 -3.86,-8.622 -8.622,-8.622 h -45.891 c -4.762,0 -8.622,3.86 -8.622,8.622 v 43.275004 l -0.017,0.017 31.572,31.572 31.557,-31.557 h 0.024 V 57.593286 Z m -54.555,39.756 v -36.974 c 0,-1.56 1.264,-2.824 2.824,-2.824 h 40.328 c 1.56,0 2.824,1.264 2.824,2.824 v 36.947 l -23.002,23.001004 z"
         inkscape:connector-curvature="0"
         style="fill:#ffffff" />
      <path
         class="armor-icon-path"
         id="path4520"
         d="m 2022.5879,96.054286 v -32.45 c 0,-1.327 1.076,-2.402 2.402,-2.402 h 34.305 c 1.327,0 2.402,1.075 2.402,2.402 v 32.427 l -19.565,19.567004 z"
         inkscape:connector-curvature="0"
         style="fill:#ffffff" />
    </g>
  </g>
</svg>
